<svg width="306" height="40" viewBox="0 0 306 40" fill="none" xmlns="http://www.w3.org/2000/svg">
<rect width="88" height="40" fill="#00A9F4"/>
<path d="M20.492 25.716V30H10.268V25.716H12.896V14.016H10.268V9.732H20.492V14.016H17.9V25.716H20.492ZM24.4014 30V15.168H28.7574L29.5854 17.832H29.6574C29.6574 17.832 29.7174 17.7 29.8374 17.436C29.9814 17.148 30.2214 16.824 30.5574 16.464C30.8934 16.104 31.3614 15.792 31.9614 15.528C32.5854 15.24 33.3774 15.096 34.3374 15.096C35.4174 15.096 36.2814 15.288 36.9294 15.672C37.6014 16.056 38.1054 16.56 38.4414 17.184C38.8014 17.784 39.0414 18.444 39.1614 19.164C39.2814 19.86 39.3414 20.544 39.3414 21.216C39.3654 21.864 39.3774 22.416 39.3774 22.872V30H34.4814V22.836C34.4814 22.308 34.4334 21.792 34.3374 21.288C34.2654 20.784 34.0614 20.364 33.7254 20.028C33.3894 19.668 32.8134 19.488 31.9974 19.488C31.2054 19.488 30.6414 19.668 30.3054 20.028C29.9694 20.364 29.7654 20.784 29.6934 21.288C29.6214 21.792 29.5854 22.308 29.5854 22.836V30H24.4014ZM48.1572 30C46.7172 30 45.5772 29.664 44.7372 28.992C43.8972 28.32 43.4772 27.096 43.4772 25.32V18.516H41.3892V15.096C41.9652 15.096 42.4572 15.012 42.8652 14.844C43.2972 14.676 43.6212 14.328 43.8372 13.8C44.0772 13.248 44.1972 12.42 44.1972 11.316H48.1572V15.096H51.5052V18.516H48.1572V26.148H51.6132V30H48.1572ZM61.5327 30.36C59.7327 30.36 58.2807 30 57.1767 29.28C56.0727 28.56 55.2567 27.636 54.7287 26.508C54.2247 25.356 53.9487 24.156 53.9007 22.908C53.8527 21.276 54.1407 19.872 54.7647 18.696C55.3887 17.496 56.2647 16.584 57.3927 15.96C58.5447 15.312 59.8647 14.988 61.3527 14.988C62.7687 14.988 64.0287 15.288 65.1327 15.888C66.2607 16.464 67.1367 17.292 67.7607 18.372C68.4087 19.452 68.7327 20.748 68.7327 22.26V23.196H58.6527C58.6527 24.252 58.9047 25.02 59.4087 25.5C59.9367 25.98 60.6087 26.22 61.4247 26.22C62.1207 26.22 62.6727 26.064 63.0807 25.752C63.5127 25.416 63.7647 24.996 63.8367 24.492H68.6967C68.6247 25.548 68.3127 26.532 67.7607 27.444C67.2087 28.332 66.4167 29.04 65.3847 29.568C64.3527 30.096 63.0687 30.36 61.5327 30.36ZM58.7247 21.18H63.6927C63.6927 21.18 63.6807 21.072 63.6567 20.856C63.6567 20.64 63.5847 20.388 63.4407 20.1C63.2967 19.812 63.0567 19.56 62.7207 19.344C62.3847 19.128 61.8927 19.02 61.2447 19.02C60.5967 19.02 60.0927 19.128 59.7327 19.344C59.3727 19.56 59.1207 19.812 58.9767 20.1C58.8567 20.388 58.7847 20.64 58.7607 20.856C58.7367 21.072 58.7247 21.18 58.7247 21.18ZM71.5834 30V15.096H76.3354L76.6594 19.344C76.8034 18.72 77.0794 18.084 77.4874 17.436C77.8954 16.764 78.4834 16.212 79.2514 15.78C80.0194 15.324 81.0274 15.096 82.2754 15.096H82.5994V20.676H82.2394C81.0394 20.676 80.0194 20.748 79.1794 20.892C78.3394 21.036 77.7034 21.348 77.2714 21.828C76.8394 22.284 76.6234 23.028 76.6234 24.06V30H71.5834Z" fill="white"/>
<path d="M92.6553 30V15.168H97.0113L97.8393 17.832H97.9113C97.9113 17.832 97.9713 17.7 98.0913 17.436C98.2353 17.148 98.4753 16.824 98.8113 16.464C99.1473 16.104 99.6153 15.792 100.215 15.528C100.839 15.24 101.631 15.096 102.591 15.096C103.671 15.096 104.535 15.288 105.183 15.672C105.855 16.056 106.359 16.56 106.695 17.184C107.055 17.784 107.295 18.444 107.415 19.164C107.535 19.86 107.595 20.544 107.595 21.216C107.619 21.864 107.631 22.416 107.631 22.872V30H102.735V22.836C102.735 22.308 102.687 21.792 102.591 21.288C102.519 20.784 102.315 20.364 101.979 20.028C101.643 19.668 101.067 19.488 100.251 19.488C99.4593 19.488 98.8953 19.668 98.5593 20.028C98.2233 20.364 98.0193 20.784 97.9473 21.288C97.8753 21.792 97.8393 22.308 97.8393 22.836V30H92.6553ZM117.563 30.36C115.763 30.36 114.311 30 113.207 29.28C112.103 28.56 111.287 27.636 110.759 26.508C110.255 25.356 109.979 24.156 109.931 22.908C109.883 21.276 110.171 19.872 110.795 18.696C111.419 17.496 112.295 16.584 113.423 15.96C114.575 15.312 115.895 14.988 117.383 14.988C118.799 14.988 120.059 15.288 121.163 15.888C122.291 16.464 123.167 17.292 123.791 18.372C124.439 19.452 124.763 20.748 124.763 22.26V23.196H114.683C114.683 24.252 114.935 25.02 115.439 25.5C115.967 25.98 116.639 26.22 117.455 26.22C118.151 26.22 118.703 26.064 119.111 25.752C119.543 25.416 119.795 24.996 119.867 24.492H124.727C124.655 25.548 124.343 26.532 123.791 27.444C123.239 28.332 122.447 29.04 121.415 29.568C120.383 30.096 119.099 30.36 117.563 30.36ZM114.755 21.18H119.723C119.723 21.18 119.711 21.072 119.687 20.856C119.687 20.64 119.615 20.388 119.471 20.1C119.327 19.812 119.087 19.56 118.751 19.344C118.415 19.128 117.923 19.02 117.275 19.02C116.627 19.02 116.123 19.128 115.763 19.344C115.403 19.56 115.151 19.812 115.007 20.1C114.887 20.388 114.815 20.64 114.791 20.856C114.767 21.072 114.755 21.18 114.755 21.18ZM133.662 30C132.222 30 131.082 29.664 130.242 28.992C129.402 28.32 128.982 27.096 128.982 25.32V18.516H126.894V15.096C127.47 15.096 127.962 15.012 128.37 14.844C128.802 14.676 129.126 14.328 129.342 13.8C129.582 13.248 129.702 12.42 129.702 11.316H133.662V15.096H137.01V18.516H133.662V26.148H137.118V30H133.662Z" fill="#00A9F4"/>
<path d="M156.136 30.36C154.984 30.36 153.856 30.228 152.752 29.964C151.648 29.7 150.652 29.28 149.764 28.704C148.876 28.104 148.156 27.336 147.604 26.4C147.076 25.464 146.812 24.336 146.812 23.016H151.852C151.852 23.16 151.9 23.388 151.996 23.7C152.116 23.988 152.332 24.3 152.644 24.636C152.98 24.972 153.448 25.26 154.048 25.5C154.672 25.716 155.5 25.824 156.532 25.824C156.988 25.824 157.456 25.788 157.936 25.716C158.416 25.644 158.824 25.5 159.16 25.284C159.496 25.044 159.664 24.684 159.664 24.204C159.664 23.7 159.424 23.304 158.944 23.016C158.488 22.728 157.876 22.5 157.108 22.332C156.364 22.14 155.536 21.948 154.624 21.756C153.736 21.564 152.848 21.324 151.96 21.036C151.072 20.748 150.256 20.364 149.512 19.884C148.792 19.38 148.228 18.744 147.82 17.976C147.436 17.184 147.28 16.2 147.352 15.024C147.472 13.248 148.312 11.868 149.872 10.884C151.432 9.876 153.604 9.372 156.388 9.372C157.876 9.372 159.268 9.636 160.564 10.164C161.884 10.692 162.952 11.496 163.768 12.576C164.608 13.656 165.028 15.024 165.028 16.68H160.168C160.168 15.936 159.916 15.384 159.412 15.024C158.932 14.64 158.344 14.388 157.648 14.268C156.976 14.148 156.364 14.088 155.812 14.088C154.924 14.088 154.18 14.196 153.58 14.412C153.004 14.628 152.716 15.048 152.716 15.672C152.716 16.224 152.956 16.656 153.436 16.968C153.916 17.256 154.54 17.496 155.308 17.688C156.076 17.856 156.916 18.036 157.828 18.228C158.764 18.396 159.688 18.612 160.6 18.876C161.512 19.14 162.328 19.512 163.048 19.992C163.792 20.448 164.368 21.06 164.776 21.828C165.208 22.596 165.376 23.58 165.28 24.78C165.16 26.532 164.272 27.9 162.616 28.884C160.984 29.868 158.824 30.36 156.136 30.36ZM178.656 30.36C177.792 30.36 177.072 30.24 176.496 30C175.944 29.76 175.5 29.484 175.164 29.172C174.828 28.86 174.588 28.584 174.444 28.344C174.3 28.104 174.228 27.984 174.228 27.984H174.156V37.164H168.972V15.096H173.364L174.156 17.832H174.228C174.228 17.832 174.288 17.7 174.408 17.436C174.528 17.148 174.744 16.824 175.056 16.464C175.392 16.104 175.848 15.792 176.424 15.528C177 15.24 177.744 15.096 178.656 15.096C180.168 15.096 181.356 15.408 182.22 16.032C183.084 16.656 183.696 17.556 184.056 18.732C184.416 19.884 184.596 21.264 184.596 22.872C184.596 25.248 184.152 27.096 183.264 28.416C182.4 29.712 180.864 30.36 178.656 30.36ZM176.964 26.22C177.828 26.22 178.452 26.064 178.836 25.752C179.244 25.416 179.496 24.996 179.592 24.492C179.712 23.964 179.772 23.412 179.772 22.836C179.772 22.26 179.712 21.72 179.592 21.216C179.496 20.688 179.244 20.268 178.836 19.956C178.452 19.644 177.828 19.488 176.964 19.488C176.124 19.488 175.5 19.644 175.092 19.956C174.684 20.268 174.42 20.688 174.3 21.216C174.204 21.72 174.156 22.26 174.156 22.836C174.156 23.412 174.204 23.964 174.3 24.492C174.42 24.996 174.684 25.416 175.092 25.752C175.5 26.064 176.124 26.22 176.964 26.22ZM194.219 30.36C192.419 30.36 190.967 30 189.863 29.28C188.759 28.56 187.943 27.636 187.415 26.508C186.911 25.356 186.635 24.156 186.587 22.908C186.539 21.276 186.827 19.872 187.451 18.696C188.075 17.496 188.951 16.584 190.079 15.96C191.231 15.312 192.551 14.988 194.039 14.988C195.455 14.988 196.715 15.288 197.819 15.888C198.947 16.464 199.823 17.292 200.447 18.372C201.095 19.452 201.419 20.748 201.419 22.26V23.196H191.339C191.339 24.252 191.591 25.02 192.095 25.5C192.623 25.98 193.295 26.22 194.111 26.22C194.807 26.22 195.359 26.064 195.767 25.752C196.199 25.416 196.451 24.996 196.523 24.492H201.383C201.311 25.548 200.999 26.532 200.447 27.444C199.895 28.332 199.103 29.04 198.071 29.568C197.039 30.096 195.755 30.36 194.219 30.36ZM191.411 21.18H196.379C196.379 21.18 196.367 21.072 196.343 20.856C196.343 20.64 196.271 20.388 196.127 20.1C195.983 19.812 195.743 19.56 195.407 19.344C195.071 19.128 194.579 19.02 193.931 19.02C193.283 19.02 192.779 19.128 192.419 19.344C192.059 19.56 191.807 19.812 191.663 20.1C191.543 20.388 191.471 20.64 191.447 20.856C191.423 21.072 191.411 21.18 191.411 21.18ZM211.47 30.36C209.67 30.36 208.218 30 207.114 29.28C206.01 28.56 205.194 27.636 204.666 26.508C204.162 25.356 203.886 24.156 203.838 22.908C203.79 21.276 204.078 19.872 204.702 18.696C205.326 17.496 206.202 16.584 207.33 15.96C208.482 15.312 209.802 14.988 211.29 14.988C212.706 14.988 213.966 15.288 215.07 15.888C216.198 16.464 217.074 17.292 217.698 18.372C218.346 19.452 218.67 20.748 218.67 22.26V23.196H208.59C208.59 24.252 208.842 25.02 209.346 25.5C209.874 25.98 210.546 26.22 211.362 26.22C212.058 26.22 212.61 26.064 213.018 25.752C213.45 25.416 213.702 24.996 213.774 24.492H218.634C218.562 25.548 218.25 26.532 217.698 27.444C217.146 28.332 216.354 29.04 215.322 29.568C214.29 30.096 213.006 30.36 211.47 30.36ZM208.662 21.18H213.63C213.63 21.18 213.618 21.072 213.594 20.856C213.594 20.64 213.522 20.388 213.378 20.1C213.234 19.812 212.994 19.56 212.658 19.344C212.322 19.128 211.83 19.02 211.182 19.02C210.534 19.02 210.03 19.128 209.67 19.344C209.31 19.56 209.058 19.812 208.914 20.1C208.794 20.388 208.722 20.64 208.698 20.856C208.674 21.072 208.662 21.18 208.662 21.18ZM227.461 30.36C225.973 30.36 224.797 30.06 223.933 29.46C223.093 28.86 222.493 27.996 222.133 26.868C221.797 25.74 221.629 24.408 221.629 22.872C221.629 20.4 222.049 18.492 222.889 17.148C223.729 15.78 225.253 15.096 227.461 15.096C228.373 15.096 229.129 15.24 229.729 15.528C230.329 15.792 230.797 16.104 231.133 16.464C231.469 16.824 231.709 17.148 231.853 17.436C231.997 17.7 232.069 17.832 232.069 17.832H232.141V9.732H237.325V30H232.933L232.141 27.984H232.069C232.069 27.984 231.985 28.104 231.817 28.344C231.673 28.584 231.421 28.86 231.061 29.172C230.701 29.484 230.221 29.76 229.621 30C229.045 30.24 228.325 30.36 227.461 30.36ZM229.333 26.22C230.197 26.22 230.821 26.064 231.205 25.752C231.613 25.416 231.865 24.996 231.961 24.492C232.081 23.964 232.141 23.412 232.141 22.836C232.141 22.26 232.081 21.72 231.961 21.216C231.865 20.688 231.613 20.268 231.205 19.956C230.821 19.644 230.197 19.488 229.333 19.488C228.493 19.488 227.869 19.644 227.461 19.956C227.053 20.268 226.789 20.688 226.669 21.216C226.573 21.72 226.525 22.26 226.525 22.836C226.525 23.412 226.573 23.964 226.669 24.492C226.789 24.996 227.053 25.416 227.461 25.752C227.869 26.064 228.493 26.22 229.333 26.22ZM247.072 14.016V9.732H263.092V14.016H257.584V30H252.544V14.016H247.072ZM270.137 30.36C268.337 30.36 266.885 30 265.781 29.28C264.677 28.56 263.861 27.636 263.333 26.508C262.829 25.356 262.553 24.156 262.505 22.908C262.457 21.276 262.745 19.872 263.369 18.696C263.993 17.496 264.869 16.584 265.997 15.96C267.149 15.312 268.469 14.988 269.957 14.988C271.373 14.988 272.633 15.288 273.737 15.888C274.865 16.464 275.741 17.292 276.365 18.372C277.013 19.452 277.337 20.748 277.337 22.26V23.196H267.257C267.257 24.252 267.509 25.02 268.013 25.5C268.541 25.98 269.213 26.22 270.029 26.22C270.725 26.22 271.277 26.064 271.685 25.752C272.117 25.416 272.369 24.996 272.441 24.492H277.301C277.229 25.548 276.917 26.532 276.365 27.444C275.813 28.332 275.021 29.04 273.989 29.568C272.957 30.096 271.673 30.36 270.137 30.36ZM267.329 21.18H272.297C272.297 21.18 272.285 21.072 272.261 20.856C272.261 20.64 272.189 20.388 272.045 20.1C271.901 19.812 271.661 19.56 271.325 19.344C270.989 19.128 270.497 19.02 269.849 19.02C269.201 19.02 268.697 19.128 268.337 19.344C267.977 19.56 267.725 19.812 267.581 20.1C267.461 20.388 267.389 20.64 267.365 20.856C267.341 21.072 267.329 21.18 267.329 21.18ZM286.884 30.36C286.716 30.36 286.356 30.336 285.804 30.288C285.276 30.264 284.664 30.168 283.968 30C283.296 29.808 282.636 29.508 281.988 29.1C281.34 28.692 280.8 28.14 280.368 27.444C279.96 26.724 279.756 25.8 279.756 24.672H284.364C284.364 24.696 284.364 24.816 284.364 25.032C284.388 25.248 284.46 25.488 284.58 25.752C284.724 26.016 284.952 26.256 285.264 26.472C285.6 26.664 286.092 26.76 286.74 26.76C287.556 26.76 288.06 26.616 288.252 26.328C288.444 26.04 288.54 25.824 288.54 25.68C288.54 25.32 288.336 25.032 287.928 24.816C287.52 24.6 286.992 24.408 286.344 24.24C285.696 24.048 285 23.844 284.256 23.628C283.536 23.388 282.852 23.088 282.204 22.728C281.556 22.344 281.028 21.852 280.62 21.252C280.212 20.652 280.008 19.884 280.008 18.948C280.008 17.412 280.572 16.296 281.7 15.6C282.852 14.904 284.292 14.556 286.02 14.556C288.18 14.556 289.932 15.06 291.276 16.068C292.644 17.052 293.352 18.504 293.4 20.424H288.864C288.864 19.584 288.588 19.02 288.036 18.732C287.508 18.444 286.92 18.3 286.272 18.3C285.576 18.3 285.12 18.42 284.904 18.66C284.688 18.876 284.58 19.104 284.58 19.344C284.58 19.776 284.784 20.124 285.192 20.388C285.624 20.628 286.164 20.844 286.812 21.036C287.484 21.228 288.192 21.432 288.936 21.648C289.704 21.864 290.412 22.152 291.06 22.512C291.732 22.848 292.272 23.304 292.68 23.88C293.112 24.432 293.328 25.152 293.328 26.04C293.328 27.432 292.752 28.5 291.6 29.244C290.472 29.988 288.9 30.36 286.884 30.36ZM301.799 30C300.359 30 299.219 29.664 298.379 28.992C297.539 28.32 297.119 27.096 297.119 25.32V18.516H295.031V15.096C295.607 15.096 296.099 15.012 296.507 14.844C296.939 14.676 297.263 14.328 297.479 13.8C297.719 13.248 297.839 12.42 297.839 11.316H301.799V15.096H305.147V18.516H301.799V26.148H305.255V30H301.799Z" fill="#003952"/>
</svg>
